<mxfile host="ac.draw.io" modified="2023-06-29T12:21:57.921Z" agent="Mozilla/5.0 (X11; Linux x86_64; rv:109.0) Gecko/20100101 Firefox/114.0" etag="XhbocCQMUiGGjzYVNrPv" version="21.5.2" type="embed">
  <diagram id="5SKr_eIFcE_ZFLUkAXeI" name="Page-1">
    <mxGraphModel dx="1434" dy="785" grid="1" gridSize="10" guides="1" tooltips="1" connect="1" arrows="1" fold="1" page="1" pageScale="1" pageWidth="850" pageHeight="1100" math="0" shadow="0">
      <root>
        <mxCell id="0" />
        <mxCell id="1" parent="0" />
        <mxCell id="AH_o04OjZ3QHJmtK7x0I-7" value="" style="edgeStyle=orthogonalEdgeStyle;rounded=0;orthogonalLoop=1;jettySize=auto;html=1;exitX=0.5;exitY=1;exitDx=0;exitDy=0;entryX=0.5;entryY=0;entryDx=0;entryDy=0;" parent="1" source="AH_o04OjZ3QHJmtK7x0I-1" target="AH_o04OjZ3QHJmtK7x0I-2" edge="1">
          <mxGeometry relative="1" as="geometry" />
        </mxCell>
        <mxCell id="AH_o04OjZ3QHJmtK7x0I-1" value="IDLE" style="ellipse;whiteSpace=wrap;html=1;" parent="1" vertex="1">
          <mxGeometry x="240" y="80" width="80" height="50" as="geometry" />
        </mxCell>
        <mxCell id="AH_o04OjZ3QHJmtK7x0I-9" value="" style="edgeStyle=orthogonalEdgeStyle;rounded=0;orthogonalLoop=1;jettySize=auto;html=1;" parent="1" source="AH_o04OjZ3QHJmtK7x0I-2" target="AH_o04OjZ3QHJmtK7x0I-6" edge="1">
          <mxGeometry relative="1" as="geometry" />
        </mxCell>
        <mxCell id="AH_o04OjZ3QHJmtK7x0I-2" value="WAIT_GNT" style="ellipse;whiteSpace=wrap;html=1;" parent="1" vertex="1">
          <mxGeometry x="240" y="161" width="80" height="50" as="geometry" />
        </mxCell>
        <mxCell id="9ZTHa95PJFct_x_zG4CE-4" value="no data" style="edgeStyle=orthogonalEdgeStyle;rounded=0;orthogonalLoop=1;jettySize=auto;html=1;exitX=1;exitY=0.5;exitDx=0;exitDy=0;entryX=1;entryY=0.5;entryDx=0;entryDy=0;" parent="1" source="AH_o04OjZ3QHJmtK7x0I-5" target="AH_o04OjZ3QHJmtK7x0I-1" edge="1">
          <mxGeometry x="-0.8793" relative="1" as="geometry">
            <Array as="points">
              <mxPoint x="550" y="385" />
              <mxPoint x="550" y="105" />
            </Array>
            <mxPoint as="offset" />
          </mxGeometry>
        </mxCell>
        <mxCell id="9ZTHa95PJFct_x_zG4CE-6" value="data" style="edgeStyle=orthogonalEdgeStyle;rounded=0;orthogonalLoop=1;jettySize=auto;html=1;exitX=0.5;exitY=1;exitDx=0;exitDy=0;" parent="1" source="AH_o04OjZ3QHJmtK7x0I-5" target="9ZTHa95PJFct_x_zG4CE-5" edge="1">
          <mxGeometry relative="1" as="geometry" />
        </mxCell>
        <mxCell id="AH_o04OjZ3QHJmtK7x0I-5" value="SEND&lt;br&gt;CR_RESP" style="ellipse;whiteSpace=wrap;html=1;" parent="1" vertex="1">
          <mxGeometry x="400" y="360" width="80" height="50" as="geometry" />
        </mxCell>
        <mxCell id="9ZTHa95PJFct_x_zG4CE-2" style="edgeStyle=orthogonalEdgeStyle;rounded=0;orthogonalLoop=1;jettySize=auto;html=1;exitX=1;exitY=0.5;exitDx=0;exitDy=0;entryX=0.5;entryY=0;entryDx=0;entryDy=0;" parent="1" source="AH_o04OjZ3QHJmtK7x0I-6" target="AH_o04OjZ3QHJmtK7x0I-5" edge="1">
          <mxGeometry relative="1" as="geometry" />
        </mxCell>
        <mxCell id="9ZTHa95PJFct_x_zG4CE-3" value="miss&lt;br&gt;&lt;div&gt;hit+ReadOnce&lt;/div&gt;" style="edgeLabel;html=1;align=center;verticalAlign=middle;resizable=0;points=[];" parent="9ZTHa95PJFct_x_zG4CE-2" connectable="0" vertex="1">
          <mxGeometry x="-0.467" relative="1" as="geometry">
            <mxPoint x="5" as="offset" />
          </mxGeometry>
        </mxCell>
        <mxCell id="9ZTHa95PJFct_x_zG4CE-12" value="hit+ReadShared" style="edgeStyle=orthogonalEdgeStyle;rounded=0;orthogonalLoop=1;jettySize=auto;html=1;exitX=0;exitY=0.5;exitDx=0;exitDy=0;entryX=1;entryY=0.5;entryDx=0;entryDy=0;" parent="1" source="AH_o04OjZ3QHJmtK7x0I-6" target="9ZTHa95PJFct_x_zG4CE-8" edge="1">
          <mxGeometry relative="1" as="geometry" />
        </mxCell>
        <mxCell id="9ZTHa95PJFct_x_zG4CE-13" value="hit+ReadUnique&lt;br&gt;&lt;div&gt;hit+CleanInvalid&lt;/div&gt;" style="edgeStyle=orthogonalEdgeStyle;rounded=0;orthogonalLoop=1;jettySize=auto;html=1;exitX=0.5;exitY=1;exitDx=0;exitDy=0;entryX=0.5;entryY=0;entryDx=0;entryDy=0;" parent="1" source="AH_o04OjZ3QHJmtK7x0I-6" target="9ZTHa95PJFct_x_zG4CE-11" edge="1">
          <mxGeometry x="-0.2308" relative="1" as="geometry">
            <Array as="points" />
            <mxPoint as="offset" />
            <mxPoint x="280" y="350" as="targetPoint" />
          </mxGeometry>
        </mxCell>
        <mxCell id="AH_o04OjZ3QHJmtK7x0I-6" value="EVAL_FLAGS" style="ellipse;whiteSpace=wrap;html=1;" parent="1" vertex="1">
          <mxGeometry x="240" y="245" width="80" height="50" as="geometry" />
        </mxCell>
        <mxCell id="9ZTHa95PJFct_x_zG4CE-7" style="edgeStyle=orthogonalEdgeStyle;rounded=0;orthogonalLoop=1;jettySize=auto;html=1;exitX=1;exitY=0.5;exitDx=0;exitDy=0;entryX=1;entryY=0.5;entryDx=0;entryDy=0;" parent="1" source="9ZTHa95PJFct_x_zG4CE-5" target="AH_o04OjZ3QHJmtK7x0I-1" edge="1">
          <mxGeometry relative="1" as="geometry">
            <Array as="points">
              <mxPoint x="550" y="465" />
              <mxPoint x="550" y="105" />
            </Array>
          </mxGeometry>
        </mxCell>
        <mxCell id="9ZTHa95PJFct_x_zG4CE-5" value="SEND&lt;br&gt;CD_RESP" style="ellipse;whiteSpace=wrap;html=1;" parent="1" vertex="1">
          <mxGeometry x="400" y="440" width="80" height="50" as="geometry" />
        </mxCell>
        <mxCell id="9ZTHa95PJFct_x_zG4CE-15" style="edgeStyle=orthogonalEdgeStyle;rounded=0;orthogonalLoop=1;jettySize=auto;html=1;exitX=0.5;exitY=1;exitDx=0;exitDy=0;entryX=0;entryY=0.5;entryDx=0;entryDy=0;" parent="1" source="9ZTHa95PJFct_x_zG4CE-8" target="AH_o04OjZ3QHJmtK7x0I-5" edge="1">
          <mxGeometry relative="1" as="geometry">
            <Array as="points">
              <mxPoint x="100" y="345" />
            </Array>
          </mxGeometry>
        </mxCell>
        <mxCell id="9ZTHa95PJFct_x_zG4CE-8" value="UPDATE&lt;br&gt;SHARED" style="ellipse;whiteSpace=wrap;html=1;" parent="1" vertex="1">
          <mxGeometry x="60" y="245" width="80" height="50" as="geometry" />
        </mxCell>
        <mxCell id="6pOL0wLfkT8qNh3g1Hre-3" style="edgeStyle=orthogonalEdgeStyle;rounded=0;orthogonalLoop=1;jettySize=auto;html=1;exitX=1;exitY=0.5;exitDx=0;exitDy=0;entryX=0;entryY=0.5;entryDx=0;entryDy=0;" parent="1" source="9ZTHa95PJFct_x_zG4CE-11" target="AH_o04OjZ3QHJmtK7x0I-5" edge="1">
          <mxGeometry relative="1" as="geometry">
            <Array as="points">
              <mxPoint x="380" y="385" />
              <mxPoint x="380" y="385" />
            </Array>
          </mxGeometry>
        </mxCell>
        <mxCell id="9ZTHa95PJFct_x_zG4CE-11" value="INVALIDATE" style="ellipse;whiteSpace=wrap;html=1;" parent="1" vertex="1">
          <mxGeometry x="240" y="360" width="80" height="50" as="geometry" />
        </mxCell>
      </root>
    </mxGraphModel>
  </diagram>
</mxfile>
